<?xml version="1.0" encoding="UTF-8" standalone="no"?>
<!-- Created with Inkscape (http://www.inkscape.org/) -->

<svg
   width="400"
   height="400"
   viewBox="0 0 105.83333 105.83333"
   version="1.1"
   id="svg1"
   xml:space="preserve"
   inkscape:version="1.4 (86a8ad7, 2024-10-11)"
   sodipodi:docname="qwat black.svg"
   xmlns:inkscape="http://www.inkscape.org/namespaces/inkscape"
   xmlns:sodipodi="http://sodipodi.sourceforge.net/DTD/sodipodi-0.dtd"
   xmlns:xlink="http://www.w3.org/1999/xlink"
   xmlns="http://www.w3.org/2000/svg"
   xmlns:svg="http://www.w3.org/2000/svg"><sodipodi:namedview
     id="namedview1"
     pagecolor="#ffffff"
     bordercolor="#000000"
     borderopacity="0.25"
     inkscape:showpageshadow="2"
     inkscape:pageopacity="0.0"
     inkscape:pagecheckerboard="0"
     inkscape:deskcolor="#d1d1d1"
     inkscape:document-units="px"
     inkscape:zoom="0.70710678"
     inkscape:cx="352.13918"
     inkscape:cy="3.5355339"
     inkscape:window-width="1920"
     inkscape:window-height="991"
     inkscape:window-x="-9"
     inkscape:window-y="-9"
     inkscape:window-maximized="1"
     inkscape:current-layer="layer1" /><defs
     id="defs1"><linearGradient
       id="linearGradient42"
       inkscape:collect="always"><stop
         style="stop-color:#20abfc;stop-opacity:1;"
         offset="0"
         id="stop41" /><stop
         style="stop-color:#010d23;stop-opacity:1;"
         offset="1"
         id="stop42" /></linearGradient><linearGradient
       inkscape:collect="always"
       xlink:href="#linearGradient42"
       id="linearGradient37"
       gradientUnits="userSpaceOnUse"
       gradientTransform="matrix(2.1940564,0,0,2.1940564,-333.92175,113.6767)"
       x1="176.99849"
       y1="-46.478687"
       x2="178.00699"
       y2="-24.782854" /></defs><g
     inkscape:label="Layer 1"
     inkscape:groupmode="layer"
     id="layer1"><path
       id="path36"
       style="fill:url(#linearGradient37);stroke:#307feb;stroke-width:0.870766;stroke-dasharray:none;stroke-opacity:1"
       d="m 46.858147,9.9920491 c -13.05231,0 -22.008909,5.9390429 -33.80001,22.4120229 -2.766924,3.865594 -6.7391754,8.698343 -8.8278513,10.739447 -2.0886539,2.041102 -3.79652936,3.841576 -3.79486187,4.001215 0.001689,0.15964 1.96850737,2.902553 4.37084557,6.095363 2.7355056,3.635607 5.8814976,8.866476 8.4174096,13.995752 4.650829,9.406991 8.357205,14.620654 12.81318,18.023043 6.262034,4.781409 11.832897,6.562974 20.568444,6.577235 6.115779,0.01009 10.730362,-1.033683 15.797382,-3.572637 l 3.62932,-1.818631 h 0.0011 c 0,0 4.10791,2.24776 6.239348,3.210949 4.876356,2.203609 10.98134,4.971089 14.94589,5.858398 5.611629,1.255939 12.17144,-1.250911 13.683957,-5.229132 1.91857,-5.046185 1.80588,-13.172862 -0.3991,-28.755691 -0.29216,-2.064809 -0.48111,-3.752466 -0.546494,-5.195118 -0.06341,-1.395246 -0.01097,-2.558493 0.181444,-3.600979 0.004,-0.01865 0.007,-0.03804 0.011,-0.05669 0.29922,-1.581724 0.91889,-2.890338 1.93428,-4.322085 0.34049,-0.48002 0.72546,-0.974815 1.1576,-1.497763 2.63855,-3.192995 2.77156,-3.775588 0.86284,-3.775588 -1.31819,0 -3.97046,3.278809 -6.242754,6.348204 -0.775291,1.047392 -1.507404,2.070573 -2.125909,2.930898 -0.844667,1.174904 -1.791951,2.37552 -2.130428,3.78239 -0.520935,2.165337 0.270988,6.675873 0.270988,6.675873 0.196587,4.847665 0.276736,8.778025 0.243759,11.81997 -0.01536,1.441377 -0.05661,2.679875 -0.123525,3.716631 -0.07131,1.102305 -0.170698,1.988249 -0.300454,2.632705 -0.06538,0.324591 -0.162799,0.638126 -0.287992,0.937661 v 0.0011 c -0.1255,0.299833 -0.278645,0.585721 -0.458075,0.856026 -0.179474,0.270288 -0.384794,0.524448 -0.612252,0.760787 -0.454893,0.472725 -1.000204,0.873239 -1.611139,1.183698 -0.3055,0.155208 -0.627083,0.287678 -0.962598,0.3957 -0.670965,0.216071 -1.395837,0.333651 -2.150856,0.334473 -1.072828,0.0012 -3.256572,-0.591473 -5.693993,-1.397987 -2.437443,-0.806465 -5.128541,-1.826861 -7.21669,-2.682596 C 73.91558,81.054441 72.430928,80.21794 72.430928,80.21794 h -0.0022 l 2.09528,-2.917292 C 82.947697,65.575536 84.388776,43.243088 77.603459,29.565007 71.620662,17.504678 59.820171,9.9920447 46.857927,9.9920447 Z m -5.308498,7.6498149 c 5.032529,-0.0086 10.20754,1.557036 14.499158,4.108928 5.407823,3.215589 9.826016,8.388208 12.6454,14.012758 3.05891,6.10241 3.710238,13.26766 3.970584,20.088846 0.159728,4.186836 -0.07745,8.536353 -1.489808,12.480982 -1.173184,3.276375 -4.353644,9.208035 -5.623717,8.797231 -2.429435,-0.785797 -4.706932,-1.362889 -6.842538,-1.773278 -0.04586,-0.0088 -0.09149,-0.01733 -0.137129,-0.02609 -1.031316,-0.195271 -2.030028,-0.351453 -2.994382,-0.4728 -0.03949,-0.005 -0.07855,-0.0099 -0.117821,-0.0147 -0.959768,-0.118282 -1.885748,-0.202314 -2.780111,-0.256239 -0.04476,-0.0026 -0.0893,-0.0055 -0.133837,-0.0079 -1.838268,-0.105073 -3.541756,-0.08502 -5.110089,0.0238 -1.588716,0.110186 -3.041028,0.31006 -4.364022,0.558969 -5.292591,0.995801 -8.50379,2.775907 -9.997942,2.739286 -0.232746,-0.0057 -1.630118,-1.314402 -2.192784,-2.176916 C 25.247218,67.089262 20.232724,57.15498 19.777216,46.854537 c -0.356008,-8.050054 1.385393,-17.141144 6.65205,-23.239704 3.1029,-3.593011 8.249037,-5.423791 12.97532,-5.870869 0.710128,-0.06718 1.426246,-0.100817 2.145173,-0.102046 z M 95.74124,30.579771 c -3.236496,-2e-6 -5.913947,2.677455 -5.913947,5.913954 0,3.236499 2.677451,5.912817 5.913947,5.912817 3.236497,-2e-6 5.91281,-2.676321 5.91281,-5.912817 0,-3.236497 -2.676313,-5.913954 -5.91281,-5.913954 z M 40.301319,79.245166 c 0.420359,-0.0046 0.866016,-4.65e-4 1.337913,0.0136 0.0011,3.3e-5 0.0022,-3.3e-5 0.0044,0 1.414947,0.04232 3.063496,0.176731 4.955891,0.447855 0.631274,0.09046 1.290215,0.196039 1.976231,0.318599 1.372075,0.245109 2.854248,0.557732 4.450204,0.951268 1.595957,0.393548 3.30528,0.867941 5.131613,1.436537 0.304469,0.09481 0.731191,0.311402 1.08167,0.504545 0.349886,0.19266 0.622848,0.36236 0.623594,0.36282 0,0 -1.094461,0.709644 -1.706383,0.913851 -2.309903,0.770855 -4.786224,1.085808 -7.221232,1.108865 -2.94947,0.02793 -5.961032,-0.278237 -8.770038,-1.178028 -1.854943,-0.594186 -4.11401,-1.983333 -5.164502,-2.731348 l -1.910475,-1.360572 c 0.330228,-0.172409 1.023725,-0.394419 2.106624,-0.558968 0.812195,-0.123438 1.843358,-0.21493 3.10437,-0.229029 z"
       inkscape:export-filename="path33.png"
       inkscape:export-xdpi="96"
       inkscape:export-ydpi="96" /></g></svg>
